<?xml version="1.0" encoding="UTF-8" standalone="no"?>
<!-- Generator: Adobe Illustrator 14.0.0, SVG Export Plug-In . SVG Version: 6.00 Build 43363)  -->

<svg
   xmlns:dc="http://purl.org/dc/elements/1.1/"
   xmlns:cc="http://creativecommons.org/ns#"
   xmlns:rdf="http://www.w3.org/1999/02/22-rdf-syntax-ns#"
   xmlns:svg="http://www.w3.org/2000/svg"
   xmlns="http://www.w3.org/2000/svg"
   xmlns:sodipodi="http://sodipodi.sourceforge.net/DTD/sodipodi-0.dtd"
   xmlns:inkscape="http://www.inkscape.org/namespaces/inkscape"
   version="1.1"
   id="Layer_1"
   x="0px"
   y="0px"
   width="70px"
   height="70px"
   viewBox="0 0 70 70"
   enable-background="new 0 0 70 70"
   xml:space="preserve"
   sodipodi:docname="credits.svg"
   inkscape:version="0.92.2 (5c3e80d, 2017-08-06)"><metadata
     id="metadata17"><rdf:RDF><cc:Work
         rdf:about=""><dc:format>image/svg+xml</dc:format><dc:type
           rdf:resource="http://purl.org/dc/dcmitype/StillImage" /></cc:Work></rdf:RDF></metadata><defs
     id="defs15" /><sodipodi:namedview
     pagecolor="#ffffff"
     bordercolor="#666666"
     borderopacity="1"
     objecttolerance="10"
     gridtolerance="10"
     guidetolerance="10"
     inkscape:pageopacity="0"
     inkscape:pageshadow="2"
     inkscape:window-width="1920"
     inkscape:window-height="1003"
     id="namedview13"
     showgrid="false"
     inkscape:zoom="3.3714286"
     inkscape:cx="35"
     inkscape:cy="35"
     inkscape:window-x="-9"
     inkscape:window-y="-9"
     inkscape:window-maximized="1"
     inkscape:current-layer="g10" /><g
     id="g10"><g
       id="g4"><path
         fill-rule="evenodd"
         clip-rule="evenodd"
         fill="#C5C7C9"
         d="M48.359,17.824c0-7.356-5.982-13.34-13.359-13.34    c-7.373,0-13.34,5.983-13.34,13.34c0,7.377,5.967,13.359,13.34,13.359C42.377,31.184,48.359,25.201,48.359,17.824z"
         id="path2" /></g><g
       id="g4515"
       transform="translate(0,16.016949)"><path
         id="path4513"
         d="m 48.359,17.824 c 0,-7.356 -5.982,-13.34 -13.359,-13.34 -7.373,0 -13.34,5.983 -13.34,13.34 0,7.377 5.967,13.359 13.34,13.359 7.377,0.001 13.359,-5.982 13.359,-13.359 z"
         inkscape:connector-curvature="0"
         style="clip-rule:evenodd;fill:#c5c7c9;fill-rule:evenodd" /></g><g
       transform="translate(0,34.110169)"
       id="g4519"><path
         style="clip-rule:evenodd;fill:#c5c7c9;fill-rule:evenodd"
         inkscape:connector-curvature="0"
         d="m 48.359,17.824 c 0,-7.356 -5.982,-13.34 -13.359,-13.34 -7.373,0 -13.34,5.983 -13.34,13.34 0,7.377 5.967,13.359 13.34,13.359 7.377,0.001 13.359,-5.982 13.359,-13.359 z"
         id="path4517" /></g></g></svg>