<?xml version="1.0" encoding="UTF-8" standalone="no"?>
<!-- Created with Inkscape (http://www.inkscape.org/) -->

<svg
   xmlns:dc="http://purl.org/dc/elements/1.1/"
   xmlns:cc="http://creativecommons.org/ns#"
   xmlns:rdf="http://www.w3.org/1999/02/22-rdf-syntax-ns#"
   xmlns:svg="http://www.w3.org/2000/svg"
   xmlns="http://www.w3.org/2000/svg"
   xmlns:sodipodi="http://sodipodi.sourceforge.net/DTD/sodipodi-0.dtd"
   xmlns:inkscape="http://www.inkscape.org/namespaces/inkscape"
   width="1077"
   height="209"
   viewBox="0 0 284.95625 55.297919"
   version="1.1"
   id="svg8"
   inkscape:version="0.92.4 (5da689c313, 2019-01-14)"
   sodipodi:docname="logo.svg">
  <defs
     id="defs2" />
  <sodipodi:namedview
     id="base"
     pagecolor="#ffffff"
     bordercolor="#666666"
     borderopacity="1.0"
     inkscape:pageopacity="0.0"
     inkscape:pageshadow="2"
     inkscape:zoom="0.70000001"
     inkscape:cx="427.20143"
     inkscape:cy="306.61126"
     inkscape:document-units="mm"
     inkscape:current-layer="layer1"
     showgrid="false"
     inkscape:window-width="1920"
     inkscape:window-height="1027"
     inkscape:window-x="-8"
     inkscape:window-y="-8"
     inkscape:window-maximized="1"
     units="px"
     inkscape:pagecheckerboard="true" />
  <metadata
     id="metadata5">
    <rdf:RDF>
      <cc:Work
         rdf:about="">
        <dc:format>image/svg+xml</dc:format>
        <dc:type
           rdf:resource="http://purl.org/dc/dcmitype/StillImage" />
        <dc:title />
      </cc:Work>
    </rdf:RDF>
  </metadata>
  <g
     inkscape:label="Layer 1"
     inkscape:groupmode="layer"
     id="layer1"
     transform="translate(0,-241.70206)">
    <g
       aria-label="SABER"
       style="font-style:normal;font-variant:normal;font-weight:normal;font-stretch:normal;font-size:96.85094452px;line-height:1.25;font-family:'Microsoft Yi Baiti';-inkscape-font-specification:'Microsoft Yi Baiti';letter-spacing:0px;word-spacing:0px;fill:#ffffff;fill-opacity:1;stroke:none;stroke-width:0.50443202"
       id="text1410">
      <path
         d="m 22.451016,296.18836 q -5.249246,0 -9.174357,-1.08768 -3.9251116,-1.13497 -6.6206701,-3.16846 -2.648268,-2.08078 -4.066983,-4.9655 -1.418715,-2.93201 -1.65516751,-6.57338 H 4.6697879 q 0.567486,3.49949 2.1280725,5.81673 1.5605865,2.31723 3.8305306,3.68866 2.317234,1.37142 5.249245,1.93891 2.932011,0.56748 6.242347,0.56748 3.452206,0 6.195055,-0.70935 2.79014,-0.75665 4.72905,-2.12808 1.986201,-1.41871 3.026592,-3.35762 1.040391,-1.9862 1.040391,-4.44531 0,-2.60098 -0.898519,-4.35072 -0.89852,-1.79704 -3.026592,-3.12118 -2.128073,-1.32413 -5.62757,-2.36452 -3.452206,-1.04039 -8.606871,-2.12808 -4.256145,-0.94581 -7.330028,-2.17536 -3.0265916,-1.22955 -5.0127926,-2.83743 -1.986201,-1.65517 -2.932011,-3.73595 -0.94581,-2.12807 -0.94581,-4.91821 0,-3.02659 1.2768435,-5.53299 1.2768435,-2.5064 3.594078,-4.30343 2.364525,-1.79704 5.6275691,-2.79014 3.310335,-0.9931 7.282737,-0.9931 3.972403,0 7.282738,0.94581 3.310335,0.89852 5.769441,2.64826 2.506396,1.74975 4.019692,4.25615 1.560587,2.5064 1.986201,5.67486 h -3.641368 q -0.520196,-2.08078 -1.702458,-3.87782 -1.182263,-1.79704 -3.073883,-3.07388 -1.844329,-1.32414 -4.445307,-2.0335 -2.553687,-0.75664 -5.864022,-0.75664 -6.951704,0 -10.545782,2.55368 -3.5467871,2.55369 -3.5467871,6.999 0,2.03349 0.662067,3.54678 0.662067,1.5133 2.2226535,2.74285 1.6078766,1.18227 4.2088546,2.12808 2.600977,0.89852 6.478798,1.70245 2.269945,0.47291 4.68176,0.9931 2.411816,0.5202 4.68176,1.22956 2.317234,0.70936 4.398016,1.74975 2.080782,1.04039 3.594078,2.55368 1.560587,1.5133 2.459106,3.64137 0.94581,2.08078 0.94581,4.9655 0,3.31034 -1.418715,6.10048 -1.371424,2.74285 -3.877821,4.77634 -2.459106,1.9862 -5.911312,3.12117 -3.404916,1.08768 -7.424609,1.08768 z"
         style="font-style:normal;font-variant:normal;font-weight:normal;font-stretch:normal;font-size:96.85094452px;font-family:'Microsoft Yi Baiti';-inkscape-font-specification:'Microsoft Yi Baiti';fill:#ffffff;fill-opacity:1;stroke-width:0.50443202"
         id="path840" />
      <path
         d="M 93.386766,295.24255 H 88.846878 L 82.509951,278.5963 h -25.48958 q -1.371424,3.92511 -2.979301,8.32313 -1.607877,4.35072 -3.073883,8.32312 h -4.019692 q 2.553687,-6.71525 5.012793,-13.14676 2.506396,-6.4315 4.965502,-12.76843 2.459107,-6.38422 4.918213,-12.81573 2.506396,-6.4315 5.060083,-13.09946 h 5.343827 z M 81.42227,275.617 69.410483,246.81708 58.013472,275.617 Z"
         style="font-style:normal;font-variant:normal;font-weight:normal;font-stretch:normal;font-size:96.85094452px;font-family:'Microsoft Yi Baiti';-inkscape-font-specification:'Microsoft Yi Baiti';fill:#ffffff;fill-opacity:1;stroke-width:0.50443202"
         id="path842" />
      <path
         d="m 139.0221,280.72437 q 0,7.04628 -4.77634,10.78223 -4.72905,3.73595 -13.9507,3.73595 h -18.82162 v -51.78309 h 18.72704 q 7.80293,0 11.91721,2.9793 4.16156,2.93201 4.16156,9.41081 0,1.79704 -0.37832,3.73595 -0.33104,1.89162 -1.27685,3.54678 -0.94581,1.65517 -2.60098,2.97931 -1.65516,1.27684 -4.25614,1.84433 3.64137,0.33103 5.81673,1.60787 2.22265,1.22956 3.40492,3.02659 1.22955,1.79704 1.60787,3.97241 0.42562,2.12807 0.42562,4.16156 z m -33.76542,10.73494 h 14.99109 q 14.66006,0 14.66006,-10.73494 0,-2.79014 -0.75665,-4.82363 -0.75665,-2.03349 -2.60098,-3.31034 -1.79704,-1.32413 -4.82363,-1.93891 -2.9793,-0.66206 -7.51919,-0.66206 h -13.9507 z m 0,-25.25312 h 13.90341 q 6.90441,0 10.16746,-2.22266 3.26304,-2.22265 3.26304,-7.4719 0,-4.72905 -3.02659,-6.99899 -3.02659,-2.31723 -9.69455,-2.31723 l -14.61277,0.0473 z"
         style="font-style:normal;font-variant:normal;font-weight:normal;font-stretch:normal;font-size:96.85094452px;font-family:'Microsoft Yi Baiti';-inkscape-font-specification:'Microsoft Yi Baiti';fill:#ffffff;fill-opacity:1;stroke-width:0.50443202"
         id="path844" />
      <path
         d="m 187.87319,295.24255 h -37.40678 v -51.78309 h 36.12994 v 3.78324 h -32.3467 v 19.15265 h 30.31321 v 3.78324 h -30.31321 v 21.28072 h 33.62354 z"
         style="font-style:normal;font-variant:normal;font-weight:normal;font-stretch:normal;font-size:96.85094452px;font-family:'Microsoft Yi Baiti';-inkscape-font-specification:'Microsoft Yi Baiti';fill:#ffffff;fill-opacity:1;stroke-width:0.50443202"
         id="path846" />
      <path
         d="m 240.93313,295.24255 h -4.16157 l -5.15466,-13.76153 q -0.75665,-1.9862 -1.70246,-3.73595 -0.89852,-1.74975 -2.12807,-3.02659 -1.22956,-1.32414 -2.83743,-2.08079 -1.56059,-0.75664 -3.68866,-0.75664 h -18.11226 v 23.3615 h -3.78324 v -51.78309 h 23.31421 q 3.26305,0 6.28964,0.61477 3.07388,0.56749 5.43841,2.08078 2.41181,1.5133 3.83053,4.20886 1.41871,2.64827 1.41871,6.80983 0,2.60098 -0.66206,4.87092 -0.61478,2.22266 -1.93891,4.0197 -1.27685,1.74974 -3.31034,3.02659 -1.9862,1.22955 -4.68176,1.79704 1.46601,1.13497 2.41182,2.17536 0.94581,1.04039 1.60787,2.22265 0.70936,1.18227 1.22956,2.60098 0.56748,1.41872 1.27684,3.26304 z m -37.78511,-27.14474 h 17.97039 q 3.83053,0 6.57338,-0.56749 2.74285,-0.56749 4.49259,-1.84433 1.79704,-1.32413 2.64827,-3.40491 0.85123,-2.08079 0.85123,-5.10738 0,-5.34383 -3.40492,-7.61377 -3.35762,-2.31723 -10.07287,-2.31723 h -19.05807 z"
         style="font-style:normal;font-variant:normal;font-weight:normal;font-stretch:normal;font-size:96.85094452px;font-family:'Microsoft Yi Baiti';-inkscape-font-specification:'Microsoft Yi Baiti';fill:#ffffff;fill-opacity:1;stroke-width:0.50443202"
         id="path848" />
    </g>
  </g>
</svg>
